<?xml version="1.0" encoding="iso-8859-1"?>
<!-- Generator: Adobe Illustrator 17.1.0, SVG Export Plug-In . SVG Version: 6.00 Build 0)  -->
<!DOCTYPE svg PUBLIC "-//W3C//DTD SVG 1.1//EN" "http://www.w3.org/Graphics/SVG/1.1/DTD/svg11.dtd">
<svg version="1.1" id="Capa_1" xmlns="http://www.w3.org/2000/svg" xmlns:xlink="http://www.w3.org/1999/xlink" x="0px" y="0px"
	 viewBox="0 0 495.864 495.864" style="enable-background:new 0 0 495.864 495.864;" xml:space="preserve">
<g>
	<path d="M482.15,123.324c-10.209-22.929-25.799-45.242-45.084-64.527c-19.285-19.285-41.598-34.875-64.527-45.084
		C350.026,3.69,327.373-0.988,307.013,0.174c-2.951,0.169-5.527,2.056-6.579,4.817c-1.053,2.762-0.385,5.884,1.705,7.974
		l33.811,33.811c15.791,15.791,15.791,41.485,0,57.276L229.191,210.811l-8.029-5.735c-3.37-2.407-8.055-1.626-10.462,1.744
		c-2.408,3.371-1.627,8.055,1.744,10.462l5.995,4.282l-11.875,11.874l-8.029-5.735c-3.37-2.407-8.054-1.626-10.462,1.744
		c-2.408,3.371-1.627,8.055,1.744,10.462l5.995,4.282l-11.874,11.874l-8.03-5.735c-3.37-2.407-8.054-1.627-10.462,1.744
		c-2.408,3.371-1.627,8.055,1.744,10.462l5.995,4.282l-11.874,11.874l-8.029-5.735c-3.37-2.407-8.054-1.627-10.462,1.744
		c-2.408,3.371-1.627,8.055,1.744,10.462l5.995,4.282l-11.875,11.874l-8.029-5.735c-3.37-2.408-8.054-1.627-10.462,1.744
		c-2.408,3.371-1.627,8.055,1.744,10.462l5.995,4.282l-11.875,11.874l-8.029-5.735c-3.37-2.406-8.054-1.626-10.462,1.744
		c-2.408,3.371-1.627,8.055,1.744,10.462l5.995,4.282l-11.875,11.874l-8.029-5.735c-3.37-2.407-8.054-1.626-10.462,1.744
		c-2.408,3.371-1.627,8.055,1.744,10.462l5.995,4.282L70.8,369.203l-8.029-5.735c-3.37-2.407-8.055-1.626-10.462,1.744
		c-2.408,3.371-1.627,8.055,1.744,10.462l5.995,4.282L48.172,391.83l-8.029-5.735c-3.37-2.407-8.055-1.626-10.462,1.744
		c-2.408,3.371-1.627,8.055,1.744,10.462l5.995,4.282l-11.875,11.874l-8.029-5.735c-3.37-2.407-8.054-1.627-10.462,1.744
		c-2.408,3.371-1.627,8.055,1.744,10.462l7.801,5.572L0.264,486.39c-0.708,2.597,0.029,5.374,1.933,7.277
		c1.425,1.425,3.341,2.196,5.304,2.196c0.658,0,1.321-0.087,1.973-0.265l62.224-16.97c1.259-0.343,2.407-1.009,3.33-1.932
		l4.936-4.936l8.029,5.735c1.321,0.944,2.844,1.398,4.353,1.398c2.34,0,4.646-1.093,6.109-3.142
		c2.408-3.371,1.627-8.055-1.744-10.462l-5.995-4.282l11.874-11.874l8.029,5.735c1.321,0.944,2.844,1.397,4.353,1.397
		c2.34,0,4.646-1.092,6.109-3.141c2.408-3.371,1.627-8.055-1.744-10.462l-5.995-4.282l11.875-11.874l8.029,5.735
		c1.321,0.944,2.844,1.397,4.353,1.397c2.34,0,4.646-1.092,6.109-3.141c2.408-3.371,1.627-8.055-1.744-10.462l-5.995-4.282
		l11.875-11.874l8.029,5.735c1.321,0.944,2.844,1.397,4.353,1.397c2.34,0,4.646-1.092,6.109-3.141
		c2.408-3.371,1.627-8.055-1.744-10.462l-5.995-4.282l11.875-11.874l8.029,5.735c1.321,0.944,2.844,1.397,4.353,1.397
		c2.34,0,4.646-1.092,6.109-3.141c2.408-3.371,1.627-8.055-1.744-10.462l-5.995-4.282l11.875-11.874l8.029,5.735
		c1.321,0.944,2.844,1.397,4.353,1.397c2.34,0,4.646-1.092,6.109-3.141c2.408-3.371,1.627-8.055-1.744-10.462l-5.995-4.282
		l11.875-11.874l8.029,5.735c1.321,0.944,2.844,1.397,4.353,1.397c2.34,0,4.646-1.092,6.109-3.141
		c2.408-3.371,1.627-8.055-1.744-10.462l-5.995-4.282l11.875-11.874l8.029,5.735c1.321,0.944,2.844,1.397,4.353,1.397
		c2.34,0,4.646-1.092,6.109-3.141c2.408-3.371,1.627-8.055-1.744-10.462l-5.995-4.282l11.875-11.874l8.029,5.735
		c1.321,0.944,2.844,1.397,4.353,1.397c2.34,0,4.646-1.092,6.109-3.141c2.408-3.371,1.627-8.055-1.744-10.462l-5.995-4.282
		l11.874-11.874l8.029,5.735c1.321,0.944,2.844,1.397,4.353,1.397c2.34,0,4.646-1.092,6.109-3.141
		c2.408-3.371,1.627-8.055-1.744-10.462l-5.995-4.282l97.449-97.449c7.649-7.649,17.82-11.862,28.638-11.862
		s20.988,4.213,28.638,11.862l33.811,33.811c2.09,2.09,5.212,2.758,7.974,1.705c2.762-1.052,4.648-3.628,4.817-6.579
		C496.856,168.496,492.175,145.838,482.15,123.324z M65.829,464.682l-47.64,12.992l11.421-41.879l37.979,27.127L65.829,464.682z
		 M78.342,452.17l-40.422-28.873l11.875-11.874l40.422,28.873L78.342,452.17z M100.969,429.542l-40.422-28.873l11.875-11.874
		l40.422,28.873L100.969,429.542z M123.596,406.915l-40.422-28.873l11.874-11.874l40.423,28.873L123.596,406.915z M146.224,384.288
		l-40.422-28.873l11.874-11.874l40.423,28.873L146.224,384.288z M168.851,361.66l-40.422-28.873l11.874-11.874l40.423,28.873
		L168.851,361.66z M191.479,339.033l-40.422-28.873l11.874-11.874l40.423,28.873L191.479,339.033z M214.106,316.405l-40.422-28.873
		l11.874-11.874l40.423,28.873L214.106,316.405z M236.734,293.778l-40.423-28.873l11.874-11.874l40.423,28.873L236.734,293.778z
		 M259.361,271.151l-40.423-28.873l11.874-11.874l40.423,28.873L259.361,271.151z M459.694,149.307
		c-1.396-1.396-2.857-2.702-4.369-3.928c-0.337-0.62-0.763-1.205-1.288-1.729l-22.627-22.627c-2.929-2.929-7.678-2.929-10.606,0
		c-2.929,2.929-2.929,7.678,0,10.606l1.466,1.466c-0.606-0.019-1.211-0.044-1.82-0.044c-14.825,0-28.762,5.773-39.244,16.256
		l-99.217,99.216l-40.423-28.873l104.991-104.991c11.288-11.288,16.674-26.269,16.185-41.09l41.09,41.09
		c1.464,1.465,3.384,2.197,5.303,2.197c1.919,0,3.839-0.732,5.303-2.197c2.929-2.929,2.929-7.678,0-10.606L346.557,36.17
		l-20.351-20.351c33.324,4.13,70.273,23.605,100.254,53.585c29.982,29.982,49.457,66.928,53.585,100.254L459.694,149.307z"/>
	<path d="M346.197,154.195l-48,48c-2.929,2.929-2.929,7.678,0,10.606c1.464,1.464,3.384,2.197,5.303,2.197s3.839-0.732,5.303-2.197
		l48-48c2.929-2.929,2.929-7.678,0-10.606C353.875,151.267,349.126,151.267,346.197,154.195z"/>
	<path d="M370.197,130.195l-8,8c-2.929,2.929-2.929,7.678,0,10.606c1.464,1.464,3.384,2.197,5.303,2.197s3.839-0.732,5.303-2.197
		l8-8c2.929-2.929,2.929-7.678,0-10.606C377.875,127.267,373.126,127.267,370.197,130.195z"/>
</g>
<g>
</g>
<g>
</g>
<g>
</g>
<g>
</g>
<g>
</g>
<g>
</g>
<g>
</g>
<g>
</g>
<g>
</g>
<g>
</g>
<g>
</g>
<g>
</g>
<g>
</g>
<g>
</g>
<g>
</g>
</svg>
