<?xml version="1.0" standalone="no"?>
<!DOCTYPE svg PUBLIC "-//W3C//DTD SVG 20010904//EN"
 "http://www.w3.org/TR/2001/REC-SVG-20010904/DTD/svg10.dtd">
<svg version="1.0" xmlns="http://www.w3.org/2000/svg"
 width="3000.000000pt" height="3000.000000pt" viewBox="0 0 3000.000000 3000.000000"
 preserveAspectRatio="xMidYMid meet">
<metadata>
Created by potrace 1.16, written by Peter Selinger 2001-2019
</metadata>
<g transform="translate(0.000000,3000.000000) scale(0.100000,-0.100000)"
fill="#000000" stroke="none">
<path d="M0 15000 l0 -15000 15000 0 15000 0 0 15000 0 15000 -15000 0 -15000
0 0 -15000z m28633 11056 c-4 -7 -278 -374 -608 -815 -1003 -1342 -1812 -2425
-1970 -2638 l-150 -202 -9742 -1 c-5358 0 -9744 -4 -9747 -8 -4 -6 30 -8079
76 -18179 l3 -713 -2027 0 -2028 0 0 11285 0 11285 13100 0 c11011 0 13100 -2
13093 -14z m-19383 -5026 c210 -26 474 -124 676 -251 34 -22 64 -39 67 -39 3
0 38 38 78 85 l71 85 103 0 102 0 7 -592 c3 -326 9 -702 12 -835 l7 -243 -106
0 -107 0 -6 28 c-22 98 -91 343 -129 455 -180 542 -389 846 -658 955 -212 85
-451 62 -634 -62 -199 -135 -365 -434 -463 -830 -70 -284 -99 -552 -107 -976
-12 -659 48 -1161 188 -1567 128 -372 316 -601 554 -676 100 -31 286 -31 400
1 126 36 250 109 353 206 l42 40 0 511 c0 528 -3 563 -43 641 -23 45 -92 103
-161 135 -53 24 -183 65 -268 83 l-28 6 0 125 0 125 865 0 865 0 0 -125 c0
-69 -2 -125 -4 -125 -2 0 -38 -6 -79 -14 -116 -23 -220 -70 -265 -121 -79 -90
-86 -156 -79 -792 l5 -523 -37 -29 c-213 -169 -725 -384 -1085 -456 -301 -60
-542 -60 -796 1 -721 171 -1217 847 -1346 1834 -22 169 -30 627 -15 813 102
1219 716 2021 1631 2126 108 12 292 13 390 1z m7374 -77 c8 -30 129 -438 240
-813 137 -464 157 -530 417 -1420 399 -1369 503 -1708 555 -1818 48 -99 144
-201 233 -245 37 -19 106 -42 154 -52 l87 -18 0 -124 0 -123 -910 0 -910 0 0
124 0 123 89 17 c49 9 128 27 176 41 166 49 211 86 201 170 -4 28 -75 278
-159 558 l-152 507 -572 0 -572 0 -21 -72 c-47 -155 -149 -539 -175 -652 -36
-161 -46 -278 -28 -337 28 -97 146 -166 354 -207 l129 -26 0 -123 0 -123
-1118 0 -1117 0 -175 357 c-296 603 -503 988 -808 1501 l-114 192 -64 0 -65 0
3 -757 c4 -859 -1 -815 85 -901 62 -61 132 -90 336 -136 l27 -6 0 -125 0 -125
-890 0 -890 0 0 125 0 124 33 5 c17 3 75 13 127 21 128 21 179 39 229 81 51
44 75 90 91 169 8 44 10 520 8 1780 -3 1451 -5 1726 -17 1758 -41 109 -166
181 -428 247 l-43 11 0 125 0 125 1068 -4 c1154 -3 1115 -2 1336 -58 313 -80
541 -258 657 -515 96 -212 122 -559 64 -861 -71 -375 -292 -651 -662 -829 -50
-24 -97 -44 -103 -44 -7 0 -10 -8 -8 -18 6 -21 466 -827 696 -1217 311 -528
466 -725 572 -725 59 0 190 103 260 205 77 112 108 200 329 931 234 777 600
1985 827 2737 l139 457 237 0 c217 0 237 -1 242 -17z m3436 -575 c173 -293
346 -587 385 -653 39 -66 305 -516 590 -1000 285 -484 522 -884 527 -890 5 -6
7 434 5 1060 -3 937 -6 1084 -20 1181 -51 341 -149 459 -465 560 l-92 29 0
123 0 122 715 0 716 0 -3 -121 -3 -122 -113 -23 c-130 -26 -196 -55 -267 -117
-86 -76 -128 -181 -162 -404 -15 -97 -17 -299 -20 -1961 l-4 -1852 -211 2
-212 3 -1035 1760 -1036 1761 -3 -1146 c-4 -1376 2 -1518 73 -1731 60 -178
146 -248 418 -340 l97 -33 0 -123 0 -123 -720 0 -720 0 0 124 0 123 63 12
c269 51 399 153 456 359 45 163 46 198 46 1672 l0 1395 -23 90 c-27 106 -86
232 -139 295 -83 101 -216 188 -348 229 l-60 19 -3 126 -3 126 629 0 628 0
314 -532z m4502 516 c343 -44 635 -160 887 -351 111 -85 287 -264 361 -370
309 -440 440 -907 440 -1573 0 -458 -64 -792 -216 -1135 -98 -220 -215 -394
-374 -559 -269 -279 -617 -457 -1050 -537 -124 -23 -131 -23 -1087 -27 l-963
-3 0 124 0 125 68 6 c105 11 232 36 266 53 52 26 105 85 129 143 l22 55 3
1715 c2 1252 0 1733 -8 1782 -29 168 -148 261 -390 303 -47 8 -86 15 -87 15
-2 0 -3 56 -3 125 l0 125 939 0 c801 0 957 -2 1063 -16z m-8155 -6131 c208
-686 431 -1426 583 -1938 361 -1218 519 -1725 568 -1824 66 -136 198 -251 324
-286 61 -16 66 -16 145 4 166 41 270 114 324 228 35 73 62 195 80 358 16 152
25 2706 10 2890 -19 229 -61 345 -161 449 -90 94 -182 135 -357 161 l-43 7 0
129 0 129 798 0 799 0 16 -57 c137 -490 584 -2096 718 -2580 63 -227 116 -413
119 -413 3 0 104 341 224 758 121 416 284 979 362 1250 79 271 154 544 168
606 22 96 76 403 76 428 0 4 344 8 765 8 l765 0 0 -129 0 -129 -67 -11 c-243
-41 -349 -102 -390 -223 -17 -50 -18 -150 -21 -1790 -2 -1518 0 -1747 13
-1810 33 -161 123 -225 398 -284 l77 -16 0 -129 0 -129 -940 0 -940 0 0 129 0
129 73 12 c134 22 250 50 293 70 58 29 117 95 145 166 l24 59 3 1789 c1 984 0
1788 -2 1785 -2 -2 -194 -654 -426 -1449 -232 -795 -490 -1681 -575 -1970 -84
-289 -161 -551 -170 -582 l-16 -58 -154 0 -154 0 -10 38 c-6 20 -26 102 -46
182 -20 80 -99 375 -177 655 -77 281 -159 582 -183 670 -24 88 -67 243 -95
345 -28 102 -84 307 -125 455 -327 1194 -476 1733 -484 1750 -13 27 -14 -2751
-1 -3025 18 -400 64 -580 177 -693 56 -56 176 -118 326 -167 l97 -32 0 -129 0
-129 -1590 0 -1590 0 0 129 0 128 116 22 c173 32 296 75 340 116 36 34 37 36
31 93 -4 31 -76 284 -162 561 -85 277 -155 505 -155 507 0 2 -269 4 -599 4
l-598 0 -51 -177 c-169 -585 -214 -811 -178 -898 48 -115 167 -172 459 -220
l37 -6 0 -129 0 -130 -1157 0 -1158 0 -180 362 c-306 615 -466 909 -787 1446
l-170 282 -69 0 -69 0 0 -717 c0 -443 4 -743 10 -783 20 -125 75 -202 180
-251 25 -12 100 -35 168 -52 l122 -31 0 -128 0 -128 -925 0 -925 0 0 130 0
129 33 5 c190 31 275 50 308 66 97 50 142 121 160 257 6 52 9 656 7 1778 -3
1555 -4 1704 -20 1748 -45 131 -142 189 -445 267 l-43 11 0 129 0 130 1033 0
c1026 0 1159 -4 1337 -36 179 -32 382 -110 509 -196 66 -45 180 -163 226 -233
121 -184 173 -419 162 -720 -17 -459 -173 -767 -505 -996 -77 -53 -296 -169
-321 -169 -8 0 -11 -6 -7 -16 10 -26 531 -918 719 -1232 304 -505 430 -672
549 -727 l51 -23 49 21 c106 47 214 163 288 312 40 80 88 223 236 705 102 333
336 1091 519 1685 184 594 376 1216 427 1382 l93 303 245 0 246 0 111 -367z
m-6077 -313 l0 -620 -93 0 -94 0 -18 63 c-74 247 -250 574 -391 726 -72 78
-148 116 -264 131 -47 7 -264 14 -482 17 l-398 5 0 -911 0 -911 213 0 c148 0
233 5 282 15 215 45 332 180 419 482 29 99 66 271 66 306 0 4 43 7 95 7 l95 0
0 -980 0 -980 -93 0 -94 0 -16 98 c-20 120 -75 311 -124 435 -60 149 -151 239
-290 287 -62 22 -88 24 -311 28 l-243 4 3 -829 c3 -757 5 -832 21 -880 25 -75
72 -131 142 -169 54 -30 197 -72 298 -89 l37 -6 0 -129 0 -130 -935 0 -935 0
0 129 0 129 28 6 c15 3 63 10 107 16 255 36 337 102 365 296 14 99 14 3347 -1
3451 -6 43 -19 96 -28 119 -47 105 -182 178 -443 238 l-28 6 0 130 0 130 1555
0 1555 0 0 -620z m15660 25 l0 -595 -93 0 -93 0 -33 102 c-72 218 -230 490
-365 624 -151 151 -168 155 -703 161 l-413 5 0 -896 0 -896 218 0 c318 0 409
25 526 143 73 72 109 138 159 288 33 98 87 317 87 353 0 14 14 16 95 16 l95 0
0 -970 0 -970 -93 0 -92 0 -22 113 c-55 282 -141 501 -233 593 -107 108 -211
134 -525 134 l-216 0 4 -787 c3 -651 7 -801 19 -863 28 -134 66 -201 144 -246
74 -44 142 -55 369 -61 352 -9 592 27 717 110 43 29 130 159 212 317 96 186
268 593 292 693 6 27 6 27 95 27 l89 0 0 -52 c0 -29 -14 -343 -30 -698 -16
-355 -30 -657 -30 -672 l0 -28 -1625 0 -1625 0 0 130 c0 72 3 130 7 130 4 0
66 9 137 21 252 40 330 107 357 306 6 52 9 656 7 1778 -3 1611 -4 1703 -21
1754 -22 65 -86 130 -168 171 -50 26 -206 76 -291 94 l-28 6 0 130 0 130 1535
0 1535 0 0 -595z m-10841 -5231 c182 -26 420 -121 585 -233 42 -28 64 -37 72
-30 6 5 38 43 70 84 l59 75 102 0 103 0 1 -342 c1 -189 4 -558 8 -821 l6 -478
-99 3 -99 3 -47 180 c-109 420 -221 703 -362 914 -158 237 -383 363 -617 348
-279 -18 -484 -207 -629 -578 -225 -577 -269 -1735 -92 -2457 135 -552 367
-844 730 -918 97 -19 237 -15 335 10 277 73 520 321 724 741 43 88 83 171 88
184 9 23 11 21 106 -59 53 -45 97 -84 97 -86 0 -20 -87 -230 -145 -349 -185
-381 -412 -626 -724 -781 -271 -135 -680 -150 -1006 -39 -576 197 -990 748
-1145 1525 -52 260 -64 397 -64 710 -1 368 24 583 99 874 229 890 757 1435
1480 1529 77 10 268 6 364 -9z m-5889 -229 l0 -124 -32 -5 c-293 -47 -368 -80
-414 -181 -13 -28 -29 -87 -34 -131 -7 -53 -10 -622 -8 -1719 3 -1563 4 -1643
21 -1695 45 -134 138 -191 380 -236 l87 -17 0 -123 0 -124 -890 0 -890 0 0
125 c0 69 3 125 8 125 33 0 259 31 291 40 91 24 160 108 181 219 14 78 14
3327 -1 3406 -26 141 -98 207 -294 268 -44 13 -104 30 -132 37 l-53 12 0 124
0 124 890 0 890 0 0 -125z m1351 27 c30 -53 206 -358 391 -677 184 -319 521
-902 748 -1295 227 -393 445 -769 484 -835 l71 -120 3 865 c4 1108 -7 1348
-70 1540 -42 131 -90 196 -187 254 -49 29 -190 87 -276 114 l-30 9 -3 121 -3
122 691 0 690 0 0 -123 0 -122 -102 -19 c-131 -24 -194 -52 -264 -118 -64 -61
-96 -116 -123 -220 -55 -204 -61 -399 -61 -2276 l0 -1632 -201 2 -202 3 -242
420 c-258 448 -367 638 -1190 2065 -290 503 -532 925 -538 938 -6 12 -14 22
-19 22 -11 0 -10 -2125 2 -2355 12 -219 30 -347 66 -454 59 -176 135 -240 387
-326 l107 -37 0 -124 0 -124 -690 0 -690 0 0 123 0 122 98 24 c234 55 343 147
395 331 26 92 38 196 47 415 13 290 13 2392 0 2526 -33 351 -188 566 -478 663
l-67 23 -3 126 -3 127 603 0 603 0 56 -98z m6465 -3257 c226 -67 387 -401 344
-715 -22 -162 -80 -287 -182 -392 -81 -84 -148 -113 -258 -113 -71 0 -94 4
-140 26 -280 134 -394 603 -228 933 25 51 100 156 125 176 112 92 222 120 339
85z"/>
<path d="M4150 24825 l695 -695 10590 0 10590 0 475 681 c261 375 479 688 483
695 7 12 -1810 14 -11760 14 l-11768 0 695 -695z"/>
<path d="M3160 15672 l0 -9552 695 0 695 0 0 8878 0 8879 -77 74 c-147 139
-987 954 -1185 1149 l-128 125 0 -9553z"/>
<path d="M3160 4900 l0 -760 1432 0 c787 0 1429 2 1427 4 -2 2 -53 55 -114
118 -60 62 -258 266 -440 453 -182 187 -463 476 -625 643 l-294 302 -693 0
-693 0 0 -760z"/>
<path d="M12300 19660 l0 -962 158 5 c101 3 178 11 216 21 356 99 526 423 526
999 0 261 -30 421 -108 572 -50 97 -154 199 -252 247 -111 55 -181 69 -372 75
l-168 6 0 -963z"/>
<path d="M15961 19467 c-58 -199 -164 -567 -236 -817 l-132 -455 475 -3 c261
-1 477 -1 478 1 4 3 -461 1592 -473 1619 -5 12 -42 -101 -112 -345z"/>
<path d="M23968 20613 l-78 -4 0 -1792 c0 -1945 -2 -1865 55 -1977 33 -66 106
-139 165 -167 172 -79 465 -43 651 80 64 43 164 141 215 213 159 222 261 564
311 1044 21 210 25 861 5 1050 -90 875 -378 1395 -844 1531 -59 17 -105 22
-238 24 -91 1 -200 0 -242 -2z"/>
<path d="M11810 13800 l0 -973 168 6 c187 6 246 18 362 74 94 45 219 166 273
263 87 158 126 338 134 625 8 299 -16 454 -98 623 -76 157 -223 274 -406 323
-60 16 -119 23 -255 26 l-178 5 0 -972z"/>
<path d="M15662 13764 c-34 -115 -121 -409 -193 -654 -72 -245 -146 -499 -166
-565 -19 -66 -43 -148 -53 -182 l-19 -63 501 0 c472 0 500 1 493 18 -3 9 -114
377 -246 817 -131 440 -242 808 -247 819 -5 13 -25 -41 -70 -190z"/>
</g>
</svg>
